<?xml version="1.0" encoding="utf-8"?>
<!-- Generator: Adobe Illustrator 24.0.0, SVG Export Plug-In . SVG Version: 6.00 Build 0)  -->
<svg version="1.1" id="Слой_1" xmlns="http://www.w3.org/2000/svg" xmlns:xlink="http://www.w3.org/1999/xlink" x="0px" y="0px"
	 viewBox="0 0 2500 2500" style="enable-background:new 0 0 2500 2500;" xml:space="preserve">
<style type="text/css">
	.st0{fill:#001F18;}
	.st1{font-family:'SegoeUISymbol';}
	.st2{font-size:452.7154px;}
	.st3{font-family:'RodchenkoC';}
	.st4{fill:none;}
	.st5{font-size:836.9004px;}
	.st6{fill:#3DDC84;}
	.st7{fill:#FFFFFF;}
</style>
<text transform="matrix(1.0193 0 0 1 449.0005 1752.8311)"><tspan x="0" y="0" class="st0 st1 st2">”</tspan><tspan x="170.65" y="0" class="st0 st3 st2">YFrite</tspan><tspan x="1499.35" y="0" class="st0 st1 st2">”</tspan></text>
<rect x="258.51" y="809.87" class="st4" width="156.85" height="0.68"/>
<text transform="matrix(0.8157 0 0 1 479 1239.4463)" class="st0 st1 st5">{      }</text>
<path class="st6" d="M1244.37,1374.78l-484.62,2.76c-0.01-0.92-0.01-1.84-0.01-2.76c0-265.94,218.77-484.78,484.63-484.78
	c264.39,0,482.49,216.43,484.61,480.89L1244.37,1374.78z"/>
<path class="st6" d="M903.32,1029.41L762.71,785.87c-7.06-12.22-2.87-27.85,9.35-34.91l0,0c12.22-7.06,27.85-2.87,34.91,9.35
	l140.61,243.55c7.06,12.22,2.87,27.85-9.35,34.91h0C926.01,1045.82,910.38,1041.63,903.32,1029.41z"/>
<path class="st6" d="M1586.13,1027.93l139.47-241.57c7.06-12.22,2.87-27.85-9.35-34.91h0c-12.22-7.06-27.85-2.87-34.91,9.35
	l-139.47,241.57c-7.06,12.22-2.87,27.85,9.35,34.91v0C1563.45,1044.34,1579.08,1040.16,1586.13,1027.93z"/>
<circle class="st7" cx="1000" cy="1146" r="33"/>
<circle class="st7" cx="1488" cy="1146" r="33"/>
</svg>
